<svg version="1" xmlns="http://www.w3.org/2000/svg" width="768" height="768" viewBox="0 0 576.000000 576.000000"><path d="M51.8 95.6c-.3.2-3.6.6-7.4.8-15.8.9-30.7 10.5-38.3 24.7C-.4 133 0 123.5 0 289.2c0 83 .4 151.8.9 153 .5 1.3 1.4 4.1 2.1 6.3 1.7 5.3 6.8 13.1 11.6 17.8 4.7 4.6 13.8 10.2 18.5 11.3 1.9.4 3.7.9 4.2 1 .4.1.8.3 1 .4.6.6 26.5 1.2 37 .9.6-.1 4.1 0 7.7 0 3.6.1 11.5.1 17.5.2H123c3.9.1 12.8 0 15.5-.2 1.7 0 3.5-.1 4-.1 1.4.1 26.6.1 28.5.1.8-.1 4.4 0 8 0 3.6.1 9.7.1 13.5.1 9.9-.1 21.6-.1 24 0 6.2.1 13-.2 13.6-.6.4-.2 1-.1 1.3.4.3.4 3 .5 6 .2 3.1-.3 5.6-.4 5.6-.1 0 .5 12.4.4 24.5 0 .6-.1 3.9 0 7.5 0 3.6.1 11.5.1 17.5.2H315c3.9.1 12.8 0 15.5-.2 1.7 0 3.5-.1 4-.1 1.4.1 26.6.1 28.5.1.8-.1 4.4 0 8 0 3.6.1 9.7.1 13.5.1 9.9-.1 21.6-.1 24 0 6.2.1 13-.2 13.6-.6.4-.2 1-.1 1.3.4.3.4 3 .5 6 .2 3.1-.3 5.6-.4 5.6-.1 0 .5 12.4.4 24.5 0 .6-.1 3.9 0 7.5 0 12.4.2 28.5.2 31.5.1 1.7-.1 3.7-.2 4.5-.1 18 .8 37.8-.5 41.5-2.7.6-.4 1.5-.7 2.1-.8 2.3-.4 12-7.2 16.1-11.4 4.4-4.5 10.9-15.8 11.5-20 .2-1.4.7-3 1.1-3.7.4-.6.6-70.1.5-154.5-.3-147.8-.4-153.5-2.2-158.3-4.1-10.7-12.2-20.4-21.6-25.9-10.1-5.9-17.3-7-42.2-6.5H469c-.8.1-4.4 0-8 0-3.6-.1-10.4 0-15.3.1-4.8.2-8.7.1-8.7-.2 0-.3-2.7-.3-6 0-3.4.3-6.3.4-6.5.2-.5-.5-21.5-.5-22 0-.2.2-2.8.1-5.7-.2-2.9-.3-8.4-.3-12.3 0-3.8.3-9.2.3-12 0-2.7-.3-6.9-.2-9.2.1-2.3.3-4.7.3-5.2-.1-.6-.3-3.8-.3-7.1 0-3.4.3-6.3.3-6.5 0-.2-.3-2.9-.3-5.9 0-3.1.3-5.6.4-5.6.1 0-.4-4.4-.4-9.7-.1-5.4.3-12 .3-14.8 0-2.7-.3-6.9-.2-9.2.1-2.3.3-4.7.3-5.2-.1-.6-.3-3.8-.3-7.1 0-3.4.3-6.3.3-6.5 0-.2-.3-2.9-.3-5.9 0-3.1.3-5.6.4-5.6.1 0-.4-5.4-.4-12-.1-6.6.3-12 .3-12 0s-2.7-.3-6 0c-3.4.3-6.3.4-6.5.2-.4-.4-20.7-.5-22.2-.1-.5.1-1.2.1-1.6 0-.8-.1-24.3-.1-27.7 0-.8.1-4.4 0-8 0-3.6-.1-11.4-.1-17.5-.2H133c-3.9-.1-12.8 0-15.5.2-1.6 0-3.4.1-4 .1-.5-.1-7.1-.1-14.5-.1s-16-.1-19-.2-6.2-.1-7 0c-4.8.2-19.4 0-20-.4-.4-.2-.9-.2-1.2.1zM63.6 136c4.7.2 30.2.1 40.2-.1H116c5.8 0 11 0 11.5-.1.6 0 2.1.1 3.5.2 2 .1 8 .1 15.5.1 12 0 32-.1 37.3-.2H196c5.8 0 11 0 11.5-.1.6 0 5.7.1 11.5.1s11.4.1 12.5 0c2.4 0 22.2-.1 25-.1 1.1.1 4.9.1 8.5.1h155c5.8 0 11 0 11.5-.1.6 0 5.7.1 11.5.1s11.4.1 12.5 0H468c5.8 0 11 0 11.5-.1.6 0 5.7.1 11.5.1s11.4.1 12.5 0c1.1 0 6.7 0 12.4.1 5.7 0 10.6-.2 10.9-.4.2-.3 2.2.4 4.2 1.4 4.9 2.5 5.4 4.5 4.9 18.2-.1.7 0 2.4.1 3.8s.2 6.5.1 11.5V416c0 .8 0 5.3-.1 10-.3 13.3-1.6 14.2-20 14-3-.1-5.9-.1-6.5-.1-12 0-32 .1-37.2.2-2.6 0-22.4.1-24.8.1-1.1-.1-4.9-.1-8.5-.1H284c-5.8 0-10.9 0-11.5.1-.5 0-4.1 0-8-.1h-57c-3.4 0-24.3 0-25.5.1-.8 0-3.3-.1-5.5-.2-4.4-.2-28.6-.1-40.2.1H124c-5.8 0-10.9 0-11.5.1-.5 0-5.7-.1-11.5-.1s-11.4-.1-12.5 0c-13.2.3-37 0-41.3-.6-6.3-.8-6.7-1.8-6.9-18.6-.1-8.2-.3-16.4-.3-18.2-.1-1.8-.1-6.1-.1-9.7 0-3.6 0-7.4-.1-8.5 0-1.1 0-6.1.1-11V363v-5.5-5.5-10.5-11-26-16-9c-.1-3.9-.1-7.5-.1-8 .1-.6.1-5.7.1-11.5v-12.5-20-19c0-8.8 0-14.4-.1-16 0-1.1 0-6.1.1-11V171v-5.5-5.5c0-.8 0-5.3.1-10 .2-11.7 1.4-13.3 10.6-13.7 3.7-.2 7-.5 7.2-.8.3-.2.8-.3 1.2 0 .3.2 2.4.5 4.6.5z"/><path d="M107.6 179.7c-.3.3-6.4.4-13.6.4-22.8-.3-23.4.3-23.8 24.6-.3 14.2 0 17.8 1.3 20.6 1.6 3.3 4.4 5.6 7.8 6.1.9.1 1.8.4 2.1.7.2.2 4.6.2 9.6-.1 5.1-.3 9.7-.2 10.3.2.6.4 1.6.4 2.1 0 .6-.3 2.5-.5 4.3-.3 4.7.4 9.5-1.5 11.8-4.7 1.8-2.4 2-4.6 2.3-18.7.4-18.6 0-21.4-3.3-24.8-2.4-2.3-9.8-5.1-10.9-4zM181.1 180c-8 .6-8.5.7-11.6 4.2l-3.3 3.6-.2 17.1c-.1 13.8.2 17.8 1.5 20.5 1.6 3.3 4.3 5.4 8 6.1 1.1.2 2.2.4 2.5.5h13c6.9-.1 13.4-.1 14.5-.1 3.6.1 8-1.9 10-4.7 1.8-2.5 2-4.3 2-21.4V187l-3-3c-4.1-4.1-13.7-5.2-33.4-4zM277.1 180c-8 .6-8.5.7-11.6 4.2l-3.3 3.6-.2 17.1c-.1 26.9-.1 26.9 27.5 27.1 14.5.2 17.5-.4 21.2-3.9 3.1-2.9 3.5-6.3 3.1-24.9l-.3-16.2-3-3c-4.1-4.1-13.7-5.2-33.4-4zM470.4 179.9c-.2.2-1.8.4-3.6.3-4.8-.1-9.4 2.5-11.2 6.3-2.2 4.7-2.3 34.2-.1 38.9 2.8 5.9 4.9 6.5 26 6.6 16.9.2 21.1-1.2 23.5-7.4.5-1.5 1-9.9 1-18.8 0-24.3-.6-25-21.3-25.8-7.6-.3-14.1-.3-14.3-.1zM365 181.1c-1.4.5-3.4 2.2-4.5 3.7-1.8 2.4-2 4.6-2.3 19.9-.5 27-.4 27.1 27.3 27.3 16.9.2 21.1-1.2 23.5-7.4 1.1-3 1.3-34.1.2-36.7-.4-.8-1.8-2.9-3-4.5l-2.4-2.9-18.1-.2c-10.4-.1-19.3.2-20.7.8zM124.3 263.6c-5.4 2.7-6.3 6.1-6.3 24.4 0 25.7.6 26.3 27.3 25.8 24.6-.4 24.7-.5 24.7-26 0-25.1-.7-25.8-26.2-25.8-12.7 0-17 .4-19.5 1.6zM220.3 263.6c-5.4 2.7-6.3 6.1-6.3 24.4 0 25.3.7 26 26 26s26-.7 26-26c0-25.4-.6-26-26.2-26-12.7 0-17 .4-19.5 1.6zM318 262.8c-3.4 1.5-6 4-7 6.6-.5 1.5-1 9.9-1 18.8 0 25.1.7 25.8 26 25.8s26-.7 26-26c0-25.4-.6-26-26.2-25.9-8.9 0-17 .3-17.8.7zM414 262.8c-3.4 1.5-6 4-7 6.6-.5 1.5-1 9.9-1 18.8 0 25.1.7 25.8 26 25.8s26-.7 26-26c0-25.4-.6-26-26.2-25.9-8.9 0-17 .3-17.8.7zM80.4 344.4c-5.2 1.4-8 3.5-9.4 7-.5 1.5-1 9.9-1 18.8 0 12.5.3 16.7 1.6 19.3 1.6 3.5 6.5 6.5 10.6 6.6h15.7c23 0 23.5-.6 23.9-24.8.5-26-.4-27-22.7-27.3-7.4 0-13.7-.2-14-.4-.3-.2-2.4.2-4.7.8zM466.9 344c-6.5.8-10.4 3.2-11.9 7.4-.5 1.6-1 10.1-1 18.8 0 12.5.3 16.7 1.6 19.3 1.6 3.5 6.5 6.5 10.6 6.6h15.7c23 0 23.5-.6 23.9-24.8.3-14.2 0-17.8-1.3-20.6-2.5-5.3-6.3-6.8-17.5-6.7-8.4.1-13.2 0-13.9-.3-.3-.2-3.1 0-6.2.3zM175.1 351.1c-5.1 2-7.2 6.8-7.1 16.3.1 3.9.1 8.4 0 9.9-.1 4.4 2.8 9.4 6.5 11.1 2.9 1.4 15.2 1.6 113.3 1.6 66.1 0 111.1-.4 112.5-.9 1.4-.6 3.6-2.2 5-3.6 2.3-2.5 2.4-3.4 2.5-14.4.1-13.4-1.1-17.1-6.3-19.5-2.9-1.4-15.3-1.6-113.7-1.5-68.2 0-111.2.4-112.7 1z"/></svg>